<?xml version="1.0" encoding="UTF-8" standalone="no"?>
<!-- Created with Inkscape (http://www.inkscape.org/) -->

<svg
   xmlns:dc="http://purl.org/dc/elements/1.1/"
   xmlns:cc="http://creativecommons.org/ns#"
   xmlns:rdf="http://www.w3.org/1999/02/22-rdf-syntax-ns#"
   xmlns:svg="http://www.w3.org/2000/svg"
   xmlns="http://www.w3.org/2000/svg"
   xmlns:sodipodi="http://sodipodi.sourceforge.net/DTD/sodipodi-0.dtd"
   xmlns:inkscape="http://www.inkscape.org/namespaces/inkscape"
   id="svg2"
   version="1.1"
   inkscape:version="0.91 r13725"
   xml:space="preserve"
   width="377.62567"
   height="128.61978"
   viewBox="0 0 377.62567 128.61978"
   sodipodi:docname="logo.svg"><metadata
     id="metadata8"><rdf:RDF><cc:Work
         rdf:about=""><dc:format>image/svg+xml</dc:format><dc:type
           rdf:resource="http://purl.org/dc/dcmitype/StillImage" /><dc:title></dc:title></cc:Work></rdf:RDF></metadata><defs
     id="defs6"><clipPath
       clipPathUnits="userSpaceOnUse"
       id="clipPath16"><path
         d="m 0,1611.563 3243,0 L 3243,0 0,0 0,1611.563 Z"
         id="path18"
         inkscape:connector-curvature="0" /></clipPath><clipPath
       clipPathUnits="userSpaceOnUse"
       id="clipPath40"><path
         d="m 0,1611.563 3243,0 L 3243,0 0,0 0,1611.563 Z"
         id="path42"
         inkscape:connector-curvature="0" /></clipPath><clipPath
       clipPathUnits="userSpaceOnUse"
       id="clipPath64"><path
         d="m 0,1611.563 3243,0 L 3243,0 0,0 0,1611.563 Z"
         id="path66"
         inkscape:connector-curvature="0" /></clipPath><clipPath
       clipPathUnits="userSpaceOnUse"
       id="clipPath88"><path
         d="m 0,1611.563 3243,0 L 3243,0 0,0 0,1611.563 Z"
         id="path90"
         inkscape:connector-curvature="0" /></clipPath><clipPath
       clipPathUnits="userSpaceOnUse"
       id="clipPath112"><path
         d="m 0,1611.563 3243,0 L 3243,0 0,0 0,1611.563 Z"
         id="path114"
         inkscape:connector-curvature="0" /></clipPath><clipPath
       clipPathUnits="userSpaceOnUse"
       id="clipPath136"><path
         d="m 0,1611.563 3243,0 L 3243,0 0,0 0,1611.563 Z"
         id="path138"
         inkscape:connector-curvature="0" /></clipPath><clipPath
       clipPathUnits="userSpaceOnUse"
       id="clipPath160"><path
         d="m 0,1611.563 3243,0 L 3243,0 0,0 0,1611.563 Z"
         id="path162"
         inkscape:connector-curvature="0" /></clipPath><clipPath
       clipPathUnits="userSpaceOnUse"
       id="clipPath184"><path
         d="m 0,1611.563 3243,0 L 3243,0 0,0 0,1611.563 Z"
         id="path186"
         inkscape:connector-curvature="0" /></clipPath><clipPath
       clipPathUnits="userSpaceOnUse"
       id="clipPath212"><path
         d="m 0,1611.563 3243,0 L 3243,0 0,0 0,1611.563 Z"
         id="path214"
         inkscape:connector-curvature="0" /></clipPath><clipPath
       clipPathUnits="userSpaceOnUse"
       id="clipPath240"><path
         d="m 0,1611.563 3243,0 L 3243,0 0,0 0,1611.563 Z"
         id="path242"
         inkscape:connector-curvature="0" /></clipPath><clipPath
       clipPathUnits="userSpaceOnUse"
       id="clipPath268"><path
         d="m 0,1611.563 3243,0 L 3243,0 0,0 0,1611.563 Z"
         id="path270"
         inkscape:connector-curvature="0" /></clipPath><clipPath
       clipPathUnits="userSpaceOnUse"
       id="clipPath292"><path
         d="m 0,1611.563 3243,0 L 3243,0 0,0 0,1611.563 Z"
         id="path294"
         inkscape:connector-curvature="0" /></clipPath><clipPath
       clipPathUnits="userSpaceOnUse"
       id="clipPath316"><path
         d="m 0,1611.563 3243,0 L 3243,0 0,0 0,1611.563 Z"
         id="path318"
         inkscape:connector-curvature="0" /></clipPath><clipPath
       clipPathUnits="userSpaceOnUse"
       id="clipPath340"><path
         d="m 0,1611.563 3243,0 L 3243,0 0,0 0,1611.563 Z"
         id="path342"
         inkscape:connector-curvature="0" /></clipPath><clipPath
       clipPathUnits="userSpaceOnUse"
       id="clipPath364"><path
         d="m 0,1611.563 3243,0 L 3243,0 0,0 0,1611.563 Z"
         id="path366"
         inkscape:connector-curvature="0" /></clipPath><clipPath
       clipPathUnits="userSpaceOnUse"
       id="clipPath388"><path
         d="m 0,1611.563 3243,0 L 3243,0 0,0 0,1611.563 Z"
         id="path390"
         inkscape:connector-curvature="0" /></clipPath><clipPath
       clipPathUnits="userSpaceOnUse"
       id="clipPath412"><path
         d="m 0,1611.563 3243,0 L 3243,0 0,0 0,1611.563 Z"
         id="path414"
         inkscape:connector-curvature="0" /></clipPath><clipPath
       clipPathUnits="userSpaceOnUse"
       id="clipPath436"><path
         d="m 0,1611.563 3243,0 L 3243,0 0,0 0,1611.563 Z"
         id="path438"
         inkscape:connector-curvature="0" /></clipPath><clipPath
       clipPathUnits="userSpaceOnUse"
       id="clipPath460"><path
         d="m 0,1611.563 3243,0 L 3243,0 0,0 0,1611.563 Z"
         id="path462"
         inkscape:connector-curvature="0" /></clipPath><clipPath
       clipPathUnits="userSpaceOnUse"
       id="clipPath484"><path
         d="m 0,1611.563 3243,0 L 3243,0 0,0 0,1611.563 Z"
         id="path486"
         inkscape:connector-curvature="0" /></clipPath><clipPath
       clipPathUnits="userSpaceOnUse"
       id="clipPath508"><path
         d="m 0,1611.563 3243,0 L 3243,0 0,0 0,1611.563 Z"
         id="path510"
         inkscape:connector-curvature="0" /></clipPath><clipPath
       clipPathUnits="userSpaceOnUse"
       id="clipPath532"><path
         d="m 0,1611.563 3243,0 L 3243,0 0,0 0,1611.563 Z"
         id="path534"
         inkscape:connector-curvature="0" /></clipPath></defs><sodipodi:namedview
     pagecolor="#ffffff"
     bordercolor="#666666"
     borderopacity="1"
     objecttolerance="10"
     gridtolerance="10"
     guidetolerance="10"
     inkscape:pageopacity="0"
     inkscape:pageshadow="2"
     inkscape:window-width="1600"
     inkscape:window-height="836"
     id="namedview4"
     showgrid="false"
     fit-margin-top="0"
     fit-margin-left="0"
     fit-margin-right="0"
     fit-margin-bottom="0"
     inkscape:zoom="1.5037928"
     inkscape:cx="94.243874"
     inkscape:cy="46.43447"
     inkscape:window-x="0"
     inkscape:window-y="27"
     inkscape:window-maximized="1"
     inkscape:current-layer="g10" /><g
     id="g10"
     inkscape:groupmode="layer"
     inkscape:label="logo"
     transform="matrix(1.25,0,0,-1.25,-3256.991,1891.608)"><g
       id="g3878"
       style="fill:#ffffff"><g
         id="g236"
         style="fill:#ffffff"><g
           clip-path="url(#clipPath240)"
           id="g238"
           style="fill:#ffffff"><g
             transform="translate(2626.7646,1466.037)"
             id="g244"
             style="fill:#ffffff"><path
               inkscape:connector-curvature="0"
               id="path246"
               style="fill:#ffffff;fill-opacity:1;fill-rule:nonzero;stroke:none"
               d="m 0,0 c 3.207,-1.237 6.412,-1.165 9.619,0 0.742,0.271 1.437,0.647 1.437,1.437 l 0,10e-4 c 0,0.232 -0.064,0.485 -0.172,0.715 C 10.625,2.707 10.11,3.139 9.619,2.875 6.439,1.169 3.234,1.14 0,2.875 -0.492,3.14 -1.007,2.706 -1.266,2.15 -1.373,1.921 -1.437,1.669 -1.437,1.438 l 0,-10e-4 C -1.437,0.647 -0.737,0.285 0,0" /></g><g
             transform="translate(2621.7598,1467.0634)"
             id="g248"
             style="fill:#ffffff"><path
               inkscape:connector-curvature="0"
               id="path250"
               style="fill:#ffffff;fill-opacity:1;fill-rule:nonzero;stroke:none"
               d="m 0,0 c 0,4.696 3.807,8.503 8.503,8.503 4.696,0 8.503,-3.807 8.503,-8.503 0,-4.695 -3.807,-8.502 -8.503,-8.502 C 3.807,-8.502 0,-4.695 0,0 m 50.824,-17.117 c -2.46,1.335 -5.906,0.702 -6.337,-4.48 l 1.593,1.23 c 5.884,3.57 4.358,-8.122 -2.971,-2.303 -4.963,3.94 -7.137,8.685 -12.112,9.527 -3.334,0.566 -6.05,-1.866 -8.053,-1.781 -1.982,0.083 -3.566,2.561 -8.198,1.735 -5.546,-0.99 -8.361,-7.634 -11.939,-9.724 -9.294,-5.43 -7.463,8.326 -1.202,1.26 -0.314,3.489 -1.715,5.551 -5.624,4.625 -0.282,-0.068 -0.554,-0.156 -0.816,-0.262 l 0,15.877 2.258,0 c 0.695,-5.501 5.39,-9.756 11.08,-9.756 6.168,0 11.169,5.001 11.169,11.169 0,6.168 -5.001,11.169 -11.169,11.169 -5.69,0 -10.385,-4.254 -11.08,-9.755 l -2.258,0 0,12.32 55.659,0 0,-30.851 z m -37.736,-6.628 c 3.519,-0.826 7.611,0.431 9.746,3.498 1.934,-3.283 4.799,-3.785 9.746,-3.748 -6.284,-5.684 -12.763,-6.062 -19.492,0.25 m 47.324,42.114 -5.729,0 0,21.42 c 0,3.538 -2.895,6.434 -6.434,6.434 l -50.114,0 c -3.539,0 -6.434,-2.895 -6.434,-6.434 l 0,-19.417 c -0.17,-0.645 -0.276,-1.314 -0.31,-2.003 l -5.813,0 c -0.961,0 -1.745,-0.784 -1.745,-1.744 l 0,-1.145 c 0,-0.96 0.784,-1.746 1.745,-1.746 l 5.8,0 0,-36.713 0,-0.135 0,-14.721 c 0,-5.409 4.414,-9.822 9.823,-9.822 l 2.886,0 0,-5.913 c 0,-4.407 0.489,-3.493 4.604,-1.118 l 12.178,7.031 23.919,0 c 5.408,0 9.823,4.415 9.823,9.822 l 0,51.569 5.801,0 c 0.96,0 1.745,0.786 1.745,1.746 l 0,1.145 c 0,0.96 -0.785,1.744 -1.745,1.744" /></g><g
             transform="translate(2651.7534,1466.037)"
             id="g252"
             style="fill:#ffffff"><path
               inkscape:connector-curvature="0"
               id="path254"
               style="fill:#ffffff;fill-opacity:1;fill-rule:nonzero;stroke:none"
               d="m 0,0 c 3.206,-1.237 6.413,-1.165 9.619,0 0.742,0.271 1.437,0.647 1.437,1.437 l 0,10e-4 c 0,0.232 -0.064,0.485 -0.173,0.715 C 10.624,2.707 10.11,3.139 9.619,2.875 6.439,1.169 3.234,1.14 0,2.875 -0.492,3.14 -1.007,2.706 -1.266,2.15 -1.374,1.921 -1.437,1.669 -1.437,1.438 l 0,-10e-4 C -1.437,0.647 -0.737,0.285 0,0" /></g></g></g><g
         transform="matrix(1,0,0,-1,2695.4111,1443.7441)"
         style="font-variant:normal;font-weight:bold;font-stretch:normal;font-size:51.14640045px;font-family:'Roboto Slab';-inkscape-font-specification:RobotoSlab-Bold;writing-mode:lr-tb;fill:#ffffff;fill-opacity:1;fill-rule:nonzero;stroke:none"
         id="text256"><path
           d="M 40.082994,-22.626288 37.360847,-22.276655 31.716762,0 l -6.093614,0 -5.01974,-16.083145 -0.149843,0 L 15.433826,0 9.3651856,0 l -5.669059,-22.276655 -2.72214729,-0.349633 0,-4.395394 12.23717569,0 0,4.395394 -2.87199,0.549424 2.54733,12.3620448 0.149843,0 5.044714,-17.3068628 4.89487,0 5.094661,17.3568104 0.149843,0 2.522357,-12.3870184 -2.896964,-0.574398 0,-4.395394 12.237175,0 0,4.395394 z"
           style="fill:#ffffff"
           id="path4029" /><path
           d="m 55.529207,0.5244504 q -5.843876,0 -9.340212,-3.7460743 -3.496336,-3.7460742 -3.496336,-9.5150281 l 0,-0.998954 q 0,-6.018692 3.296546,-9.914609 3.321519,-3.895918 8.890683,-3.870944 5.469268,0 8.491101,3.296546 3.021834,3.296545 3.021834,8.915656 l 0,3.970839 -16.133094,0 -0.04995,0.149843 q 0.19979,2.6721995 1.773142,4.3953937 1.598325,1.7231941 4.320472,1.7231941 2.422461,0 4.020786,-0.4745027 1.598325,-0.4994766 3.496336,-1.5483774 l 1.972933,4.4952892 Q 64.120204,-1.2736652 61.448005,-0.37460743 58.800779,0.5244504 55.529207,0.5244504 Z M 54.879888,-21.902047 q -2.02288,0 -3.19665,1.548377 -1.17377,1.548377 -1.448482,4.070734 l 0.07492,0.124869 8.940631,0 0,-0.649319 q 0,-2.322567 -1.098849,-3.696127 -1.073874,-1.398534 -3.271571,-1.398534 z"
           style="fill:#ffffff"
           id="path4031" /><path
           d="m 95.976417,-12.761626 q 0,6.0436662 -2.697174,9.6648713 -2.697173,3.6212051 -7.791834,3.6212051 -2.372514,0 -4.120682,-0.97397931 Q 79.618559,-1.448482 78.419816,-3.3215192 L 77.895365,0 71.60196,0 l 0,-33.814564 -3.870943,-0.749214 0,-4.395394 11.138328,0 0,14.80948 q 1.173769,-1.623299 2.797068,-2.497383 1.648273,-0.874084 3.771048,-0.874084 5.144609,0 7.841782,3.895917 2.697174,3.870944 2.697174,10.339165 l 0,0.524451 z m -7.267384,-0.524451 q 0,-3.945865 -1.17377,-6.243457 -1.148796,-2.322566 -3.945865,-2.322566 -1.69822,0 -2.87199,0.724241 -1.17377,0.699267 -1.848063,2.02288 l 0,11.4130399 q 0.674293,1.2486914 1.848063,1.8980109 1.198744,0.6493196 2.921938,0.6493196 2.822042,0 3.945865,-1.9729325 1.123822,-1.9979062 1.123822,-5.6440849 l 0,-0.524451 z"
           style="fill:#ffffff"
           id="path4033" /><path
           d="m 121.41716,-17.731418 -4.89487,0 -0.77419,-3.371467 q -0.74922,-0.599372 -1.89801,-0.998953 -1.12382,-0.399581 -2.49739,-0.399581 -1.92298,0 -3.0468,0.874084 -1.12382,0.84911 -1.12382,2.147749 0,1.223717 1.07387,2.047854 1.07387,0.799162 4.2955,1.423508 5.01974,0.998953 7.4422,2.946912 2.42246,1.922985 2.42246,5.3194252 0,3.646179 -3.1467,5.968745 -3.12173,2.2975922 -8.24137,2.2975922 -3.12172,0 -5.74398,-0.89905783 -2.59727,-0.92403167 -4.62015,-2.62225197 l -0.0749,-6.0686403 5.09467,0 0.99895,3.5213098 q 0.64932,0.5494242 1.77314,0.8241363 1.12382,0.2497383 2.34754,0.2497383 2.22267,0 3.37147,-0.7991625 1.17377,-0.7991625 1.17377,-2.172723 0,-1.1987438 -1.17377,-2.0728278 -1.17377,-0.8740844 -4.32048,-1.5483774 -4.77,-0.973979 -7.21743,-2.87199 -2.42246,-1.922985 -2.42246,-5.21953 0,-3.396441 2.79707,-5.843876 2.79706,-2.472409 7.96665,-2.472409 3.1467,0 5.94377,0.84911 2.82204,0.84911 4.42037,2.172723 l 0.0749,6.71796 z"
           style="fill:#ffffff"
           id="path4035" /><path
           d="m 125.4809,-4.37042 3.52131,-0.7492148 0,-16.7574392 -3.89591,-0.749214 0,-4.395394 11.18827,0 0,21.9020472 3.49634,0.7492148 0,4.37042 -14.31001,0 0,-4.37042 z m 10.81367,-29.119484 -7.29236,0 0,-5.469268 7.29236,0 0,5.469268 z"
           style="fill:#ffffff"
           id="path4037" /><path
           d="m 152.93853,-33.639747 0,6.618065 4.74502,0 0,5.119635 -4.74502,0 0,13.760579 q 0,1.5733511 0.64932,2.2476445 0.64932,0.6742934 1.74816,0.6742934 0.74922,0 1.29864,-0.049948 0.5744,-0.074922 1.27367,-0.2247644 l 0.62434,5.26947774 q -1.22371,0.37460743 -2.42246,0.54942423 -1.19874,0.19979063 -2.59728,0.19979063 -3.77104,0 -5.8189,-2.0728278 -2.02288,-2.0728277 -2.02288,-6.5681168 l 0,-13.7855528 -3.97084,0 0,-5.119635 3.97084,0 0,-6.618065 7.26739,0 z"
           style="fill:#ffffff"
           id="path4039" /><path
           d="m 174.18886,0.5244504 q -5.84388,0 -9.34022,-3.7460743 -3.49633,-3.7460742 -3.49633,-9.5150281 l 0,-0.998954 q 0,-6.018692 3.29654,-9.914609 3.32152,-3.895918 8.89069,-3.870944 5.46927,0 8.4911,3.296546 3.02183,3.296545 3.02183,8.915656 l 0,3.970839 -16.13309,0 -0.0499,0.149843 q 0.19979,2.6721995 1.77314,4.3953937 1.59833,1.7231941 4.32047,1.7231941 2.42247,0 4.02079,-0.4745027 1.59833,-0.4994766 3.49634,-1.5483774 l 1.97293,4.4952892 q -1.67325,1.3236129 -4.34545,2.22267067 -2.64722,0.89905783 -5.91879,0.89905783 z m -0.64932,-22.4264974 q -2.02288,0 -3.19665,1.548377 -1.17377,1.548377 -1.44849,4.070734 l 0.0749,0.124869 8.94063,0 0,-0.649319 q 0,-2.322567 -1.09885,-3.696127 -1.07388,-1.398534 -3.27157,-1.398534 z"
           style="fill:#ffffff"
           id="path4041" /><path
           d="m 210.56534,-17.731418 -4.89487,0 -0.77419,-3.371467 q -0.74922,-0.599372 -1.89801,-0.998953 -1.12383,-0.399581 -2.49739,-0.399581 -1.92298,0 -3.0468,0.874084 -1.12383,0.84911 -1.12383,2.147749 0,1.223717 1.07388,2.047854 1.07387,0.799162 4.2955,1.423508 5.01974,0.998953 7.4422,2.946912 2.42246,1.922985 2.42246,5.3194252 0,3.646179 -3.1467,5.968745 -3.12173,2.2975922 -8.24137,2.2975922 -3.12173,0 -5.74398,-0.89905783 -2.59728,-0.92403167 -4.62016,-2.62225197 l -0.0749,-6.0686403 5.09466,0 0.99896,3.5213098 q 0.64932,0.5494242 1.77314,0.8241363 1.12382,0.2497383 2.34754,0.2497383 2.22267,0 3.37147,-0.7991625 1.17377,-0.7991625 1.17377,-2.172723 0,-1.1987438 -1.17377,-2.0728278 -1.17377,-0.8740844 -4.32048,-1.5483774 -4.77,-0.973979 -7.21743,-2.87199 -2.42246,-1.922985 -2.42246,-5.21953 0,-3.396441 2.79706,-5.843876 2.79707,-2.472409 7.96666,-2.472409 3.1467,0 5.94377,0.84911 2.82204,0.84911 4.42036,2.172723 l 0.0749,6.71796 z"
           style="fill:#ffffff"
           id="path4043" /></g><g
         transform="matrix(1,0,0,-1,2695.4111,1424.1938)"
         style="font-variant:normal;font-weight:bold;font-stretch:normal;font-size:20.45859909px;font-family:'Roboto Slab';-inkscape-font-specification:RobotoSlab-Bold;writing-mode:lr-tb;fill:#ffffff;fill-opacity:1;fill-rule:nonzero;stroke:none"
         id="text260"><path
           d="m 5.8039287,0.20978056 q -2.3375547,0 -3.7360918,-1.49843256 -1.39853703,-1.4984325 -1.39853703,-3.8060187 l 0,-0.399582 q 0,-2.4074816 1.31862063,-3.9658515 1.3286102,-1.5583698 3.5562799,-1.5483798 2.1877116,0 3.3964472,1.3186202 1.2087354,1.3186206 1.2087354,3.5662694 l 0,1.5883385 -6.4532494,0 -0.019979,0.059937 q 0.079916,1.0688819 0.7092581,1.7581609 0.6393312,0.689279 1.7281922,0.689279 0.9689864,0 1.6083176,-0.1898015 0.6393312,-0.199791 1.3985371,-0.6193521 l 0.7891744,1.7981191 Q 9.2403341,-0.50946707 8.1714522,-0.14984326 7.1125598,0.20978056 5.8039287,0.20978056 Z M 5.5442004,-8.7608356 q -0.8091535,0 -1.2786624,0.6193521 -0.4695089,0.6193521 -0.5793939,1.6282967 l 0.029969,0.049948 3.576259,0 0,-0.2597283 q 0,-0.9290282 -0.4395402,-1.4784534 -0.4295506,-0.5594148 -1.3086311,-0.5594148 z"
           style="fill:#ffffff"
           id="path4046" /><path
           d="m 17.888328,-1.7481713 1.408527,-0.2996865 0,-6.7029883 -1.55837,-0.2996865 0,-1.7581604 4.475318,0 0,8.7608352 1.398537,0.2996865 0,1.7481713 -5.724012,0 0,-1.7481713 z m 4.325475,-11.6478157 -2.916948,0 0,-2.187712 2.916948,0 0,2.187712 z"
           style="fill:#ffffff"
           id="path4048" /><path
           d="m 30.85053,-1.7481713 1.398537,-0.2996865 0,-6.7029883 -1.54838,-0.2996865 0,-1.7581604 4.265538,0 0.129864,1.5483798 q 0.539436,-0.8291328 1.32861,-1.2886518 0.789175,-0.459519 1.768151,-0.459519 1.638286,0 2.557325,1.0289232 0.919038,1.0289237 0.919038,3.2266248 l 0,4.7050782 1.398537,0.2996865 0,1.7481713 -5.574169,0 0,-1.7481713 1.248694,-0.2996865 0,-4.6950887 q 0,-1.088861 -0.43954,-1.5383907 -0.43954,-0.4595193 -1.32861,-0.4595193 -0.579394,0 -1.038914,0.2397492 -0.459519,0.2297596 -0.769195,0.6593103 l 0,5.7939392 1.178767,0.2996865 0,1.7481713 -5.494253,0 0,-1.7481713 z"
           style="fill:#ffffff"
           id="path4050" /><path
           d="m 50.605867,-1.7481713 1.408526,-0.2996865 0,-6.7129778 -1.608317,0 0,-2.0478574 1.608317,0 0,-1.198747 q 0,-1.818098 1.048903,-2.797074 1.048903,-0.988965 2.946918,-0.988965 0.369613,0 0.749216,0.05994 0.389592,0.04995 0.849112,0.149843 l -0.249739,2.167733 q -0.239749,-0.03996 -0.469509,-0.06993 -0.21977,-0.02997 -0.519457,-0.02997 -0.709258,0 -1.078871,0.389593 -0.359624,0.389592 -0.359624,1.118829 l 0,1.198747 2.147753,0 0,2.0478574 -2.147753,0 0,6.7129778 1.408527,0.2996865 0,1.7481713 -5.734002,0 0,-1.7481713 z"
           style="fill:#ffffff"
           id="path4052" /><path
           d="m 71.383892,0 q -0.119875,-0.26971786 -0.209781,-0.54942527 -0.08991,-0.28969696 -0.139854,-0.57939393 -0.519456,0.59937303 -1.268672,0.96898639 -0.739227,0.36961337 -1.698224,0.36961337 -1.588338,0 -2.527356,-0.85910133 -0.929028,-0.86909093 -0.929028,-2.35753393 0,-1.5184116 1.218725,-2.3475443 1.218725,-0.8291327 3.576259,-0.8291327 l 1.488443,0 0,-1.0588923 q 0,-0.7791849 -0.44953,-1.2087356 -0.44953,-0.4295506 -1.32861,-0.4295506 -0.499478,0 -0.88907,0.1198746 -0.389593,0.109885 -0.629342,0.2697178 l -0.189801,1.1587879 -2.197701,0 0.01,-2.3974921 q 0.799164,-0.539436 1.828088,-0.909049 1.038913,-0.369613 2.257638,-0.369613 2.0079,0 3.256594,0.988965 1.258683,0.9789759 1.258683,2.7970741 l 0,4.465329 q 0,0.2497388 0,0.4695089 0.01,0.2197701 0.03996,0.4195611 l 0.88907,0.1198746 0,1.7481713 -3.366478,0 z m -2.527357,-1.9479623 q 0.659311,0 1.198747,-0.2797074 0.539435,-0.289697 0.839122,-0.7192476 l 0,-1.6482759 -1.488443,0 q -0.929028,0 -1.408527,0.4395403 -0.479498,0.4295506 -0.479498,1.0389132 0,0.5494253 0.349634,0.8591013 0.359624,0.3096761 0.988965,0.3096761 z"
           style="fill:#ffffff"
           id="path4054" /><path
           d="m 87.252015,-2.0278787 q 0.779184,0 1.248693,-0.4495298 0.469509,-0.4595193 0.469509,-1.2187251 l 2.637241,0 0.02997,0.059937 q 0.03996,1.6382862 -1.228715,2.74712632 -1.268672,1.09885054 -3.156697,1.09885054 -2.417472,0 -3.726103,-1.52840116 -1.308631,-1.5284012 -1.308631,-3.9258933 l 0,-0.2996865 q 0,-2.3875026 1.3386,-3.9258933 1.348589,-1.5383903 3.835987,-1.5383903 1.308631,0 2.347545,0.389592 1.038913,0.389592 1.728192,1.0988505 l 0.03996,2.8869801 -2.367523,0 -0.479499,-1.688234 q -0.21977,-0.1898015 -0.539436,-0.3096761 -0.319665,-0.1298641 -0.729237,-0.1298641 -1.238704,0 -1.748171,0.8990595 -0.509467,0.8990595 -0.509467,2.3175757 l 0,0.2996865 q 0,1.4484848 0.469509,2.3375548 0.469509,0.8790804 1.648276,0.8790804 z"
           style="fill:#ffffff"
           id="path4056" /><path
           d="m 99.243633,-1.7481713 1.408527,-0.2996865 0,-11.4779932 -1.55837,-0.299687 0,-1.758161 4.46533,0 0,6.1535635 q 0.50947,-0.7492165 1.24869,-1.1587875 0.73923,-0.419561 1.63829,-0.419561 1.69822,0 2.65722,1.1288187 0.96899,1.1188297 0.96899,3.466374 l 0,4.3654335 1.39853,0.2996865 0,1.7481713 -5.57417,0 0,-1.7481713 1.25869,-0.2996865 0,-4.3854126 q 0,-1.2586834 -0.44953,-1.77814 -0.43954,-0.5294461 -1.31862,-0.5294461 -0.60937,0 -1.06889,0.2197701 -0.44953,0.2197701 -0.7592,0.6193521 l 0,5.8538765 1.25868,0.2996865 0,1.7481713 -5.574167,0 0,-1.7481713 z"
           style="fill:#ffffff"
           id="path4058" /><path
           d="m 139.13719,-7.0925807 -1.95795,0 -0.30968,-1.3485893 q -0.29969,-0.2397492 -0.75921,-0.399582 -0.44953,-0.1598329 -0.99895,-0.1598329 -0.7692,0 -1.21873,0.3496343 -0.44953,0.3396447 -0.44953,0.8591013 0,0.489488 0.42955,0.8191432 0.42956,0.3196656 1.71821,0.5694043 2.0079,0.399582 2.97688,1.178767 0.96899,0.7691953 0.96899,2.1277742 0,1.4584743 -1.25868,2.38750253 -1.2487,0.91903863 -3.29656,0.91903863 -1.24869,0 -2.29759,-0.35962382 -1.03892,-0.36961336 -1.84807,-1.04890274 l -0.03,-2.4274608 2.03787,0 0.39958,1.4085266 q 0.25973,0.2197701 0.70926,0.3296552 0.44953,0.099896 0.93902,0.099896 0.88907,0 1.34859,-0.3196656 0.46951,-0.3196656 0.46951,-0.8690909 0,-0.4794984 -0.46951,-0.8291327 -0.46951,-0.3496342 -1.72819,-0.6193521 -1.90801,-0.3895925 -2.88698,-1.1487983 -0.96899,-0.7691954 -0.96899,-2.087816 0,-1.3585789 1.11883,-2.3375548 1.11883,-0.9889651 3.18667,-0.9889651 1.25868,0 2.37751,0.339644 1.12882,0.339645 1.76815,0.8690912 l 0.03,2.6871891 z"
           style="fill:#ffffff"
           id="path4060" /><path
           d="m 146.95741,-9.0505326 0,-1.7581604 4.26553,0 0.11988,1.4285052 q 0.51946,-0.7791852 1.29864,-1.1987462 0.78917,-0.42955 1.8181,-0.42955 1.03891,0 1.77814,0.459519 0.73923,0.459519 1.11883,1.3885473 0.49948,-0.8690913 1.29864,-1.3585793 0.79916,-0.489487 1.87804,-0.489487 1.59832,0 2.51736,1.1088396 0.92903,1.0988506 0.92903,3.3564889 l 0,4.4952977 1.40853,0.2996865 0,1.7481713 -5.58416,0 0,-1.7481713 1.25868,-0.2996865 0,-4.5052872 q 0,-1.2287147 -0.39958,-1.7082131 -0.39958,-0.4794984 -1.18876,-0.4794984 -0.61935,0 -1.07887,0.2797074 -0.44953,0.2697178 -0.71925,0.7592058 0,0.1898014 0.01,0.3296552 0.01,0.1298641 0.01,0.2697178 l 0,5.0547125 1.17877,0.2996865 0,1.7481713 -5.26449,0 0,-1.7481713 1.17876,-0.2996865 0,-4.5052872 q 0,-1.1987461 -0.39958,-1.688234 -0.39958,-0.4994775 -1.19874,-0.4994775 -0.58939,0 -1.03892,0.2297596 -0.43954,0.2197701 -0.72923,0.6293417 l 0,5.8338974 1.25868,0.2996865 0,1.7481713 -5.57417,0 0,-1.7481713 1.40853,-0.2996865 0,-6.7029883 -1.55837,-0.2996865 z"
           style="fill:#ffffff"
           id="path4062" /><path
           d="m 179.6508,0 q -0.11988,-0.26971786 -0.20978,-0.54942527 -0.0899,-0.28969696 -0.13986,-0.57939393 -0.51945,0.59937303 -1.26867,0.96898639 -0.73923,0.36961337 -1.69822,0.36961337 -1.58834,0 -2.52736,-0.85910133 -0.92903,-0.86909093 -0.92903,-2.35753393 0,-1.5184116 1.21873,-2.3475443 1.21872,-0.8291327 3.57626,-0.8291327 l 1.48844,0 0,-1.0588923 q 0,-0.7791849 -0.44953,-1.2087356 -0.44953,-0.4295506 -1.32861,-0.4295506 -0.49948,0 -0.88907,0.1198746 -0.38959,0.109885 -0.62934,0.2697178 l -0.1898,1.1587879 -2.1977,0 0.01,-2.3974921 q 0.79916,-0.539436 1.82808,-0.909049 1.03892,-0.369613 2.25764,-0.369613 2.0079,0 3.2566,0.988965 1.25868,0.9789759 1.25868,2.7970741 l 0,4.465329 q 0,0.2497388 0,0.4695089 0.01,0.2197701 0.04,0.4195611 l 0.88907,0.1198746 0,1.7481713 -3.36648,0 z m -2.52736,-1.9479623 q 0.65931,0 1.19875,-0.2797074 0.53943,-0.289697 0.83912,-0.7192476 l 0,-1.6482759 -1.48844,0 q -0.92903,0 -1.40853,0.4395403 -0.4795,0.4295506 -0.4795,1.0389132 0,0.5494253 0.34964,0.8591013 0.35962,0.3096761 0.98896,0.3096761 z"
           style="fill:#ffffff"
           id="path4064" /><path
           d="m 190.66401,-1.7481713 1.39853,-0.2996865 0,-6.7029883 -1.54838,-0.2996865 0,-1.7581604 4.26554,0 0.12987,1.5783485 q 0.3796,-0.8391225 0.97897,-1.3086315 0.59938,-0.469508 1.38855,-0.469508 0.22976,0 0.4795,0.03996 0.25973,0.02997 0.42955,0.07992 l -0.30968,2.6572205 -1.19874,-0.029969 q -0.63933,0 -1.0589,0.2497387 -0.41956,0.2497388 -0.63933,0.7092581 l 0,5.2545035 1.39854,0.2996865 0,1.7481713 -5.71402,0 0,-1.7481713 z"
           style="fill:#ffffff"
           id="path4066" /><path
           d="m 210.04458,-13.455924 0,2.647231 1.89801,0 0,2.0478574 -1.89801,0 0,5.5042422 q 0,0.6293417 0.25973,0.8990595 0.25973,0.2697179 0.69927,0.2697179 0.29968,0 0.51945,-0.019979 0.22976,-0.029969 0.50947,-0.089906 l 0.24974,2.10779515 q -0.48949,0.14984325 -0.96899,0.2197701 -0.4795,0.0799164 -1.03891,0.0799164 -1.50842,0 -2.32757,-0.82913268 -0.80915,-0.82913268 -0.80915,-2.62725178 l 0,-5.5142317 -1.58834,0 0,-2.0478574 1.58834,0 0,-2.647231 2.90696,0 z"
           style="fill:#ffffff"
           id="path4068" /></g></g></g></svg>